<mxfile host="app.diagrams.net" agent="Mozilla/5.0 (Windows NT 10.0; Win64; x64) AppleWebKit/537.36 (KHTML, like Gecko) Chrome/136.0.0.0 Safari/537.36" version="26.2.14">
  <diagram id="C5RBs43oDa-KdzZeNtuy" name="Page-1">
    <mxGraphModel dx="2700.4" dy="782" grid="1" gridSize="10" guides="1" tooltips="1" connect="1" arrows="1" fold="1" page="1" pageScale="1.2" pageWidth="827" pageHeight="1169" math="0" shadow="0">
      <root>
        <mxCell id="WIyWlLk6GJQsqaUBKTNV-0" />
        <mxCell id="WIyWlLk6GJQsqaUBKTNV-1" parent="WIyWlLk6GJQsqaUBKTNV-0" />
        <mxCell id="RMNVfTebYBU4ELqi-INq-2" style="edgeStyle=orthogonalEdgeStyle;rounded=0;orthogonalLoop=1;jettySize=auto;html=1;entryX=0.5;entryY=0;entryDx=0;entryDy=0;" edge="1" parent="WIyWlLk6GJQsqaUBKTNV-1" source="WIyWlLk6GJQsqaUBKTNV-3" target="bft2r-rfNXa2tQwG-P6o-26">
          <mxGeometry relative="1" as="geometry" />
        </mxCell>
        <mxCell id="RMNVfTebYBU4ELqi-INq-3" style="edgeStyle=orthogonalEdgeStyle;rounded=0;orthogonalLoop=1;jettySize=auto;html=1;" edge="1" parent="WIyWlLk6GJQsqaUBKTNV-1" source="WIyWlLk6GJQsqaUBKTNV-3" target="RMNVfTebYBU4ELqi-INq-1">
          <mxGeometry relative="1" as="geometry" />
        </mxCell>
        <mxCell id="WIyWlLk6GJQsqaUBKTNV-3" value="&lt;font style=&quot;font-size: 18px;&quot;&gt;Extracted JSON&lt;/font&gt;" style="rounded=1;whiteSpace=wrap;html=1;fontSize=12;glass=0;strokeWidth=1;shadow=0;" parent="WIyWlLk6GJQsqaUBKTNV-1" vertex="1">
          <mxGeometry x="-623.2" y="280" width="166" height="70" as="geometry" />
        </mxCell>
        <mxCell id="RMNVfTebYBU4ELqi-INq-38" style="edgeStyle=orthogonalEdgeStyle;rounded=0;orthogonalLoop=1;jettySize=auto;html=1;entryX=0.5;entryY=0;entryDx=0;entryDy=0;exitX=0.5;exitY=1;exitDx=0;exitDy=0;" edge="1" parent="WIyWlLk6GJQsqaUBKTNV-1" source="WIyWlLk6GJQsqaUBKTNV-11" target="RMNVfTebYBU4ELqi-INq-37">
          <mxGeometry relative="1" as="geometry" />
        </mxCell>
        <mxCell id="RMNVfTebYBU4ELqi-INq-43" value="&lt;font style=&quot;font-size: 24px;&quot;&gt;Yes&lt;/font&gt;" style="edgeLabel;html=1;align=center;verticalAlign=middle;resizable=0;points=[];" vertex="1" connectable="0" parent="RMNVfTebYBU4ELqi-INq-38">
          <mxGeometry x="-0.1688" y="4" relative="1" as="geometry">
            <mxPoint as="offset" />
          </mxGeometry>
        </mxCell>
        <mxCell id="RMNVfTebYBU4ELqi-INq-55" style="edgeStyle=orthogonalEdgeStyle;rounded=0;orthogonalLoop=1;jettySize=auto;html=1;entryX=0;entryY=0.5;entryDx=0;entryDy=0;" edge="1" parent="WIyWlLk6GJQsqaUBKTNV-1" source="WIyWlLk6GJQsqaUBKTNV-11" target="RMNVfTebYBU4ELqi-INq-51">
          <mxGeometry relative="1" as="geometry" />
        </mxCell>
        <mxCell id="WIyWlLk6GJQsqaUBKTNV-11" value="&lt;font style=&quot;font-size: 18px;&quot;&gt;RV-3&lt;/font&gt;&lt;div&gt;&lt;span style=&quot;text-align: start;&quot; data-sheets-root=&quot;1&quot;&gt;&lt;font face=&quot;Helvetica&quot; style=&quot;font-size: 18px;&quot;&gt;Date &amp;amp; Time Validity&lt;/font&gt;&lt;/span&gt;&lt;/div&gt;" style="rounded=1;whiteSpace=wrap;html=1;fontSize=12;glass=0;strokeWidth=1;shadow=0;" parent="WIyWlLk6GJQsqaUBKTNV-1" vertex="1">
          <mxGeometry x="-946.4" y="1261.87" width="280" height="92.75" as="geometry" />
        </mxCell>
        <mxCell id="RMNVfTebYBU4ELqi-INq-33" style="edgeStyle=orthogonalEdgeStyle;rounded=0;orthogonalLoop=1;jettySize=auto;html=1;entryX=0.5;entryY=0;entryDx=0;entryDy=0;exitX=0.5;exitY=1;exitDx=0;exitDy=0;" edge="1" parent="WIyWlLk6GJQsqaUBKTNV-1" source="RMNVfTebYBU4ELqi-INq-36" target="RMNVfTebYBU4ELqi-INq-35">
          <mxGeometry relative="1" as="geometry">
            <mxPoint x="-696.4" y="866.87" as="sourcePoint" />
            <mxPoint x="-616.4" y="866.87" as="targetPoint" />
          </mxGeometry>
        </mxCell>
        <mxCell id="RMNVfTebYBU4ELqi-INq-41" value="&lt;font style=&quot;font-size: 24px;&quot;&gt;Yes&lt;/font&gt;" style="edgeLabel;html=1;align=center;verticalAlign=middle;resizable=0;points=[];" vertex="1" connectable="0" parent="RMNVfTebYBU4ELqi-INq-33">
          <mxGeometry x="-0.1056" y="3" relative="1" as="geometry">
            <mxPoint as="offset" />
          </mxGeometry>
        </mxCell>
        <mxCell id="RMNVfTebYBU4ELqi-INq-34" style="edgeStyle=orthogonalEdgeStyle;rounded=0;orthogonalLoop=1;jettySize=auto;html=1;entryX=0.5;entryY=0;entryDx=0;entryDy=0;exitX=0.5;exitY=1;exitDx=0;exitDy=0;" edge="1" parent="WIyWlLk6GJQsqaUBKTNV-1" source="RMNVfTebYBU4ELqi-INq-35" target="WIyWlLk6GJQsqaUBKTNV-11">
          <mxGeometry relative="1" as="geometry">
            <mxPoint x="-366.4" y="866.87" as="sourcePoint" />
          </mxGeometry>
        </mxCell>
        <mxCell id="RMNVfTebYBU4ELqi-INq-42" value="&lt;font style=&quot;font-size: 24px;&quot;&gt;Yes&lt;/font&gt;" style="edgeLabel;html=1;align=center;verticalAlign=middle;resizable=0;points=[];" vertex="1" connectable="0" parent="RMNVfTebYBU4ELqi-INq-34">
          <mxGeometry x="-0.114" relative="1" as="geometry">
            <mxPoint as="offset" />
          </mxGeometry>
        </mxCell>
        <mxCell id="bft2r-rfNXa2tQwG-P6o-18" value="&lt;font style=&quot;font-size: 24px;&quot;&gt;Input&lt;/font&gt;" style="text;html=1;align=center;verticalAlign=middle;whiteSpace=wrap;rounded=0;" parent="WIyWlLk6GJQsqaUBKTNV-1" vertex="1">
          <mxGeometry x="-581.8" y="240" width="60" height="30" as="geometry" />
        </mxCell>
        <mxCell id="bft2r-rfNXa2tQwG-P6o-24" style="edgeStyle=orthogonalEdgeStyle;rounded=0;orthogonalLoop=1;jettySize=auto;html=1;entryX=0.5;entryY=0;entryDx=0;entryDy=0;" parent="WIyWlLk6GJQsqaUBKTNV-1" source="bft2r-rfNXa2tQwG-P6o-19" target="RMNVfTebYBU4ELqi-INq-36" edge="1">
          <mxGeometry relative="1" as="geometry">
            <mxPoint x="-551.8" y="715.5000000000002" as="targetPoint" />
          </mxGeometry>
        </mxCell>
        <mxCell id="rkCVy3EzfNatUqVkpINY-13" value="&lt;font style=&quot;font-size: 24px;&quot;&gt;Yes&lt;/font&gt;" style="edgeLabel;html=1;align=center;verticalAlign=middle;resizable=0;points=[];" parent="bft2r-rfNXa2tQwG-P6o-24" connectable="0" vertex="1">
          <mxGeometry x="-0.3283" y="-1" relative="1" as="geometry">
            <mxPoint y="-1" as="offset" />
          </mxGeometry>
        </mxCell>
        <mxCell id="rkCVy3EzfNatUqVkpINY-40" value="" style="edgeStyle=orthogonalEdgeStyle;rounded=0;orthogonalLoop=1;jettySize=auto;html=1;entryX=0;entryY=0.5;entryDx=0;entryDy=0;" parent="WIyWlLk6GJQsqaUBKTNV-1" source="bft2r-rfNXa2tQwG-P6o-19" target="RMNVfTebYBU4ELqi-INq-51" edge="1">
          <mxGeometry relative="1" as="geometry">
            <mxPoint x="-279.3000000000002" y="542" as="targetPoint" />
          </mxGeometry>
        </mxCell>
        <mxCell id="RMNVfTebYBU4ELqi-INq-61" value="&lt;font style=&quot;font-size: 24px;&quot;&gt;No&lt;/font&gt;" style="edgeLabel;html=1;align=center;verticalAlign=middle;resizable=0;points=[];" vertex="1" connectable="0" parent="rkCVy3EzfNatUqVkpINY-40">
          <mxGeometry x="-0.1054" y="-2" relative="1" as="geometry">
            <mxPoint as="offset" />
          </mxGeometry>
        </mxCell>
        <mxCell id="bft2r-rfNXa2tQwG-P6o-19" value="&lt;font style=&quot;font-size: 18px;&quot;&gt;Do those fields above&lt;/font&gt;&lt;div&gt;&lt;font style=&quot;font-size: 18px;&quot;&gt;not null ?&lt;/font&gt;&lt;/div&gt;" style="rhombus;whiteSpace=wrap;html=1;" parent="WIyWlLk6GJQsqaUBKTNV-1" vertex="1">
          <mxGeometry x="-656.4" y="457" width="209.2" height="170" as="geometry" />
        </mxCell>
        <mxCell id="RMNVfTebYBU4ELqi-INq-5" style="edgeStyle=orthogonalEdgeStyle;rounded=0;orthogonalLoop=1;jettySize=auto;html=1;" edge="1" parent="WIyWlLk6GJQsqaUBKTNV-1" source="bft2r-rfNXa2tQwG-P6o-26" target="bft2r-rfNXa2tQwG-P6o-19">
          <mxGeometry relative="1" as="geometry" />
        </mxCell>
        <mxCell id="bft2r-rfNXa2tQwG-P6o-26" value="&lt;font style=&quot;font-size: 18px;&quot;&gt;date &amp;amp; time &amp;amp; total &amp;amp; receipt_no&lt;/font&gt;" style="rounded=1;whiteSpace=wrap;html=1;" parent="WIyWlLk6GJQsqaUBKTNV-1" vertex="1">
          <mxGeometry x="-926.4" y="350" width="240" height="63" as="geometry" />
        </mxCell>
        <mxCell id="RMNVfTebYBU4ELqi-INq-6" style="edgeStyle=orthogonalEdgeStyle;rounded=0;orthogonalLoop=1;jettySize=auto;html=1;" edge="1" parent="WIyWlLk6GJQsqaUBKTNV-1" source="RMNVfTebYBU4ELqi-INq-1" target="bft2r-rfNXa2tQwG-P6o-19">
          <mxGeometry relative="1" as="geometry" />
        </mxCell>
        <mxCell id="RMNVfTebYBU4ELqi-INq-59" value="&lt;font style=&quot;font-size: 24px;&quot;&gt;AND&lt;/font&gt;" style="edgeLabel;html=1;align=center;verticalAlign=middle;resizable=0;points=[];" vertex="1" connectable="0" parent="RMNVfTebYBU4ELqi-INq-6">
          <mxGeometry x="0.7184" relative="1" as="geometry">
            <mxPoint as="offset" />
          </mxGeometry>
        </mxCell>
        <mxCell id="RMNVfTebYBU4ELqi-INq-1" value="&lt;font style=&quot;font-size: 18px;&quot;&gt;tax_id or merchant&lt;/font&gt;" style="rounded=1;whiteSpace=wrap;html=1;" vertex="1" parent="WIyWlLk6GJQsqaUBKTNV-1">
          <mxGeometry x="-380" y="351.5" width="210" height="60" as="geometry" />
        </mxCell>
        <mxCell id="RMNVfTebYBU4ELqi-INq-54" style="edgeStyle=orthogonalEdgeStyle;rounded=0;orthogonalLoop=1;jettySize=auto;html=1;entryX=0;entryY=0.5;entryDx=0;entryDy=0;" edge="1" parent="WIyWlLk6GJQsqaUBKTNV-1" source="RMNVfTebYBU4ELqi-INq-35" target="RMNVfTebYBU4ELqi-INq-51">
          <mxGeometry relative="1" as="geometry" />
        </mxCell>
        <mxCell id="RMNVfTebYBU4ELqi-INq-35" value="&lt;font style=&quot;font-size: 18px;&quot;&gt;RV-2&lt;/font&gt;&lt;div&gt;&lt;span style=&quot;text-align: start;&quot; data-sheets-root=&quot;1&quot;&gt;&lt;font style=&quot;font-size: 18px;&quot;&gt;Location Validity&lt;/font&gt;&lt;/span&gt;&lt;/div&gt;" style="rounded=1;whiteSpace=wrap;html=1;fontSize=12;glass=0;strokeWidth=1;shadow=0;" vertex="1" parent="WIyWlLk6GJQsqaUBKTNV-1">
          <mxGeometry x="-946.4" y="1061.87" width="280" height="92.75" as="geometry" />
        </mxCell>
        <mxCell id="RMNVfTebYBU4ELqi-INq-53" style="edgeStyle=orthogonalEdgeStyle;rounded=0;orthogonalLoop=1;jettySize=auto;html=1;entryX=0;entryY=0.5;entryDx=0;entryDy=0;" edge="1" parent="WIyWlLk6GJQsqaUBKTNV-1" source="RMNVfTebYBU4ELqi-INq-36" target="RMNVfTebYBU4ELqi-INq-51">
          <mxGeometry relative="1" as="geometry" />
        </mxCell>
        <mxCell id="RMNVfTebYBU4ELqi-INq-36" value="&lt;font style=&quot;font-size: 18px;&quot;&gt;RV-1&lt;/font&gt;&lt;div&gt;&lt;span style=&quot;text-align: start;&quot; data-sheets-root=&quot;1&quot;&gt;&lt;font style=&quot;font-size: 18px;&quot;&gt;Store Eligibility (Whitelist)&lt;/font&gt;&lt;/span&gt;&lt;/div&gt;" style="rounded=1;whiteSpace=wrap;html=1;fontSize=12;glass=0;strokeWidth=1;shadow=0;" vertex="1" parent="WIyWlLk6GJQsqaUBKTNV-1">
          <mxGeometry x="-946.4" y="805.5" width="280" height="92.75" as="geometry" />
        </mxCell>
        <mxCell id="RMNVfTebYBU4ELqi-INq-40" style="edgeStyle=orthogonalEdgeStyle;rounded=0;orthogonalLoop=1;jettySize=auto;html=1;entryX=0.5;entryY=0;entryDx=0;entryDy=0;exitX=0.5;exitY=1;exitDx=0;exitDy=0;" edge="1" parent="WIyWlLk6GJQsqaUBKTNV-1" source="RMNVfTebYBU4ELqi-INq-37" target="RMNVfTebYBU4ELqi-INq-39">
          <mxGeometry relative="1" as="geometry" />
        </mxCell>
        <mxCell id="RMNVfTebYBU4ELqi-INq-44" value="&lt;font style=&quot;font-size: 24px;&quot;&gt;Yes&lt;/font&gt;" style="edgeLabel;html=1;align=center;verticalAlign=middle;resizable=0;points=[];" vertex="1" connectable="0" parent="RMNVfTebYBU4ELqi-INq-40">
          <mxGeometry x="0.1192" y="-2" relative="1" as="geometry">
            <mxPoint as="offset" />
          </mxGeometry>
        </mxCell>
        <mxCell id="RMNVfTebYBU4ELqi-INq-56" style="edgeStyle=orthogonalEdgeStyle;rounded=0;orthogonalLoop=1;jettySize=auto;html=1;entryX=0;entryY=0.5;entryDx=0;entryDy=0;" edge="1" parent="WIyWlLk6GJQsqaUBKTNV-1" source="RMNVfTebYBU4ELqi-INq-37" target="RMNVfTebYBU4ELqi-INq-51">
          <mxGeometry relative="1" as="geometry" />
        </mxCell>
        <mxCell id="RMNVfTebYBU4ELqi-INq-37" value="&lt;font style=&quot;font-size: 18px;&quot;&gt;RV-4&lt;/font&gt;&lt;div&gt;&lt;span style=&quot;text-align: start;&quot; data-sheets-root=&quot;1&quot;&gt;&lt;font face=&quot;Helvetica&quot; style=&quot;font-size: 18px;&quot;&gt;Duplicate Receipt Check&lt;/font&gt;&lt;/span&gt;&lt;/div&gt;" style="rounded=1;whiteSpace=wrap;html=1;fontSize=12;glass=0;strokeWidth=1;shadow=0;" vertex="1" parent="WIyWlLk6GJQsqaUBKTNV-1">
          <mxGeometry x="-946.4" y="1501.87" width="280" height="92.75" as="geometry" />
        </mxCell>
        <mxCell id="RMNVfTebYBU4ELqi-INq-46" style="edgeStyle=orthogonalEdgeStyle;rounded=0;orthogonalLoop=1;jettySize=auto;html=1;entryX=0.5;entryY=0;entryDx=0;entryDy=0;" edge="1" parent="WIyWlLk6GJQsqaUBKTNV-1" source="RMNVfTebYBU4ELqi-INq-39" target="RMNVfTebYBU4ELqi-INq-45">
          <mxGeometry relative="1" as="geometry" />
        </mxCell>
        <mxCell id="RMNVfTebYBU4ELqi-INq-50" value="&lt;font style=&quot;font-size: 24px;&quot;&gt;Yes&lt;/font&gt;" style="edgeLabel;html=1;align=center;verticalAlign=middle;resizable=0;points=[];" vertex="1" connectable="0" parent="RMNVfTebYBU4ELqi-INq-46">
          <mxGeometry x="-0.114" y="3" relative="1" as="geometry">
            <mxPoint as="offset" />
          </mxGeometry>
        </mxCell>
        <mxCell id="RMNVfTebYBU4ELqi-INq-57" style="edgeStyle=orthogonalEdgeStyle;rounded=0;orthogonalLoop=1;jettySize=auto;html=1;entryX=0;entryY=0.5;entryDx=0;entryDy=0;" edge="1" parent="WIyWlLk6GJQsqaUBKTNV-1" source="RMNVfTebYBU4ELqi-INq-39" target="RMNVfTebYBU4ELqi-INq-51">
          <mxGeometry relative="1" as="geometry" />
        </mxCell>
        <mxCell id="RMNVfTebYBU4ELqi-INq-58" value="&lt;font style=&quot;font-size: 24px;&quot;&gt;No&lt;/font&gt;" style="edgeLabel;html=1;align=center;verticalAlign=middle;resizable=0;points=[];" vertex="1" connectable="0" parent="RMNVfTebYBU4ELqi-INq-57">
          <mxGeometry x="0.7532" y="-3" relative="1" as="geometry">
            <mxPoint x="-1" as="offset" />
          </mxGeometry>
        </mxCell>
        <mxCell id="RMNVfTebYBU4ELqi-INq-39" value="&lt;font style=&quot;font-size: 18px;&quot;&gt;RV-5&lt;/font&gt;&lt;div&gt;&lt;span style=&quot;text-align: start;&quot; data-sheets-root=&quot;1&quot;&gt;&lt;font face=&quot;Helvetica&quot; style=&quot;font-size: 18px;&quot;&gt;Document type validity&lt;/font&gt;&lt;/span&gt;&lt;/div&gt;" style="rounded=1;whiteSpace=wrap;html=1;fontSize=12;glass=0;strokeWidth=1;shadow=0;" vertex="1" parent="WIyWlLk6GJQsqaUBKTNV-1">
          <mxGeometry x="-946.4" y="1751.87" width="280" height="92.75" as="geometry" />
        </mxCell>
        <mxCell id="RMNVfTebYBU4ELqi-INq-48" style="edgeStyle=orthogonalEdgeStyle;rounded=0;orthogonalLoop=1;jettySize=auto;html=1;entryX=0;entryY=0.5;entryDx=0;entryDy=0;" edge="1" parent="WIyWlLk6GJQsqaUBKTNV-1" source="RMNVfTebYBU4ELqi-INq-45" target="RMNVfTebYBU4ELqi-INq-47">
          <mxGeometry relative="1" as="geometry" />
        </mxCell>
        <mxCell id="RMNVfTebYBU4ELqi-INq-45" value="&lt;span style=&quot;font-size: 18px;&quot;&gt;Add success status and message to JSON&lt;/span&gt;" style="rounded=1;whiteSpace=wrap;html=1;fontSize=12;glass=0;strokeWidth=1;shadow=0;" vertex="1" parent="WIyWlLk6GJQsqaUBKTNV-1">
          <mxGeometry x="-946.4" y="1991.87" width="280" height="92.75" as="geometry" />
        </mxCell>
        <mxCell id="RMNVfTebYBU4ELqi-INq-47" value="&lt;span style=&quot;font-size: 18px;&quot;&gt;Send final JSON to backend server&lt;/span&gt;" style="rounded=1;whiteSpace=wrap;html=1;fontSize=12;glass=0;strokeWidth=1;shadow=0;" vertex="1" parent="WIyWlLk6GJQsqaUBKTNV-1">
          <mxGeometry x="-326.4" y="1881.87" width="280" height="92.75" as="geometry" />
        </mxCell>
        <mxCell id="RMNVfTebYBU4ELqi-INq-52" style="edgeStyle=orthogonalEdgeStyle;rounded=0;orthogonalLoop=1;jettySize=auto;html=1;entryX=0.5;entryY=0;entryDx=0;entryDy=0;" edge="1" parent="WIyWlLk6GJQsqaUBKTNV-1" source="RMNVfTebYBU4ELqi-INq-51" target="RMNVfTebYBU4ELqi-INq-47">
          <mxGeometry relative="1" as="geometry" />
        </mxCell>
        <mxCell id="RMNVfTebYBU4ELqi-INq-51" value="&lt;span style=&quot;font-size: 18px;&quot;&gt;Add reject status and meessage to JSON&lt;/span&gt;" style="rounded=1;whiteSpace=wrap;html=1;fontSize=12;glass=0;strokeWidth=1;shadow=0;" vertex="1" parent="WIyWlLk6GJQsqaUBKTNV-1">
          <mxGeometry x="-326.4" y="1231.87" width="280" height="92.75" as="geometry" />
        </mxCell>
      </root>
    </mxGraphModel>
  </diagram>
</mxfile>
